# xmcd
# Track frame offsets:
# 150
# 25065
# 52359
# 73476
# 95747
# 110969
# 137477
# 162781
# 182294
# 206390
# 224697
# 237311
#
# Disc length: 3478 seconds
# Revision: 0
# Processed by: cddbd v1.5.2PL0 Copyright (c) Steve Scherf et al.
# Submitted via: VisiTrax 2.10.0.248 - For more info visit www.synapsa.com
#
DISCID=b90d940c
DTITLE=McAllister, Randy - Dope Slap Soup
DYEAR=2007
DGENRE=Blues
TTITLE0=Clear My Head
TTITLE1=When I Get Back Home
TTITLE2=Can't Pick Your Relatives
TTITLE3=Baptist Church Van
TTITLE4=Rosalita's Reunion
TTITLE5=$127.00 Sandwich
TTITLE6=Set You Free
TTITLE7=The Girl Ain't Right
TTITLE8=Close Your Eyes
TTITLE9=Hardheaded
TTITLE10=Blame Yourself
TTITLE11=Steady Decline
EXTD=
EXTT0=
EXTT1=
EXTT2=
EXTT3=
EXTT4=
EXTT5=
EXTT6=
EXTT7=
EXTT8=
EXTT9=
EXTT10=
EXTT11=
PLAYORDER=
